<?xml version="1.0" encoding="UTF-8" standalone="no"?>
<!-- Generator: Adobe Illustrator 17.0.0, SVG Export Plug-In . SVG Version: 6.00 Build 0)  -->

<svg
   xmlns:dc="http://purl.org/dc/elements/1.1/"
   xmlns:cc="http://creativecommons.org/ns#"
   xmlns:rdf="http://www.w3.org/1999/02/22-rdf-syntax-ns#"
   xmlns:svg="http://www.w3.org/2000/svg"
   xmlns="http://www.w3.org/2000/svg"
   xmlns:sodipodi="http://sodipodi.sourceforge.net/DTD/sodipodi-0.dtd"
   xmlns:inkscape="http://www.inkscape.org/namespaces/inkscape"
   version="1.1"
   id="图层_1"
   x="0px"
   y="0px"
   width="82px"
   height="82px"
   viewBox="0 0 82 82"
   enable-background="new 0 0 82 82"
   xml:space="preserve"
   inkscape:version="0.48.3.1 r9886"
   sodipodi:docname="planes_meego.svg"><metadata
   id="metadata3568"><rdf:RDF><cc:Work
       rdf:about=""><dc:format>image/svg+xml</dc:format><dc:type
         rdf:resource="http://purl.org/dc/dcmitype/StillImage" /></cc:Work></rdf:RDF></metadata><defs
   id="defs3566" /><sodipodi:namedview
   pagecolor="#ffffff"
   bordercolor="#666666"
   borderopacity="1"
   objecttolerance="10"
   gridtolerance="10"
   guidetolerance="10"
   inkscape:pageopacity="0"
   inkscape:pageshadow="2"
   inkscape:window-width="1366"
   inkscape:window-height="706"
   id="namedview3564"
   showgrid="false"
   inkscape:zoom="6.3414634"
   inkscape:cx="22.865385"
   inkscape:cy="41"
   inkscape:window-x="-8"
   inkscape:window-y="-8"
   inkscape:window-maximized="1"
   inkscape:current-layer="图层_1" />
<g
   id="DO_NOT_EDIT_-_BOUNDING_BOX">
</g>
<g
   id="DO_NOT_EDIT_-_SHADOW">
</g>
<g
   id="GRAY_BACKGROUNDS">
</g>
<g
   id="g3379"
   transform="matrix(0.99791667,0,0,1.0010417,-6.7807692,-7.5115385)">
	<rect
   id="BOUNDING_BOX"
   width="96"
   height="96"
   x="0"
   y="0"
   style="fill:none" />
	<path
   id="SHADOW"
   enable-background="new    "
   d="m 88.023,49 c 0,29.633 -10.364,40 -40,40 -29.635,0 -40,-10.367 -40,-40 0,-29.634 10.366,-40 40,-40 29.636,0 40,10.365 40,40 z"
   inkscape:connector-curvature="0"
   style="opacity:0.4" />
	<linearGradient
   id="GRAY_1_1_"
   gradientUnits="userSpaceOnUse"
   x1="48"
   y1="87.988998"
   x2="48"
   y2="8.0100002">
		<stop
   offset="0"
   style="stop-color:#AFB4B5"
   id="stop3384" />
		<stop
   offset="0.5"
   style="stop-color:#C3C8C9"
   id="stop3386" />
		<stop
   offset="1"
   style="stop-color:#D7DCDD"
   id="stop3388" />
	</linearGradient>
	<path
   id="GRAY_1"
   d="m 8,47.989 c 0,29.633 10.365,40 40,40 29.637,0 40,-10.367 40,-40 C 88,19.004 78.074,8.459 49.909,8.01 H 46.092 C 17.928,8.459 8,19.004 8,47.989 z"
   style="fill:url(#GRAY_1_1_)"
   inkscape:connector-curvature="0" />
	
		<linearGradient
   id="HIGHLIGHT_GRA1_1_"
   gradientUnits="userSpaceOnUse"
   x1="-216.67979"
   y1="1392.9199"
   x2="-216.67979"
   y2="1472.9199"
   gradientTransform="translate(264.6798,-1384.9199)">
		<stop
   offset="0.0364"
   style="stop-color:#FCFCFC;stop-opacity:0.8"
   id="stop3392" />
		<stop
   offset="1"
   style="stop-color:#908F8F"
   id="stop3394" />
	</linearGradient>
	<path
   id="HIGHLIGHT_GRA1"
   enable-background="new    "
   d="M 48,8 C 18.365,8 8,18.365 8,48 8,77.633 18.365,88 48,88 77.637,88 88,77.633 88,48 88,18.365 77.637,8 48,8 z m 0,79.023 C 18.842,87.023 9,77.176 9,48 9,18.824 18.842,8.977 48,8.977 77.158,8.977 87,18.824 87,48 87,77.176 77.158,87.023 48,87.023 z"
   style="opacity:0.8;fill:url(#HIGHLIGHT_GRA1_1_)"
   inkscape:connector-curvature="0" />
	<g
   id="g3397">
		<path
   d="m 58.816,9.562 c -0.144,0.908 -0.24,1.831 -0.24,2.779 0,9.761 7.913,17.674 17.674,17.674 2.961,0 5.746,-0.737 8.197,-2.024 C 80.823,16.75 72.909,11.244 58.816,9.562 z"
   id="path3399"
   inkscape:connector-curvature="0"
   style="opacity:0.5;fill:#b0b5b5" />
		<path
   d="m 85.014,29.929 c -0.176,-0.664 -0.364,-1.311 -0.566,-1.938 -2.002,1.051 -4.228,1.727 -6.589,1.942 0.26,-0.12 0.437,-0.295 0.489,-0.516 0.14,-0.599 -0.686,-1.304 -1.844,-1.574 -0.543,-0.127 -1.059,-0.131 -1.472,-0.043 -0.067,-0.443 -0.542,-0.878 -1.201,-1.044 -0.334,-0.084 -0.657,-0.082 -0.932,-0.017 -0.273,-0.263 -0.783,-0.442 -1.374,-0.442 -0.876,0 -1.587,0.39 -1.587,0.87 0,0.48 0.71,0.87 1.587,0.87 0.27,0 0.52,-0.04 0.742,-0.105 0.193,0.319 0.589,0.597 1.086,0.723 0.282,0.071 0.558,0.081 0.803,0.044 0.103,0.522 0.827,1.064 1.799,1.301 -9.623,-0.16 -17.377,-7.998 -17.377,-17.659 0,-0.948 0.096,-1.871 0.24,-2.779 -0.649,-0.078 -1.312,-0.147 -1.988,-0.208 -0.15,0.977 -0.252,1.969 -0.252,2.987 0,1.163 0.121,2.296 0.315,3.404 -0.193,0.273 -0.315,0.659 -0.315,1.088 0,0.796 0.415,1.441 0.937,1.49 0.302,0.944 0.687,1.85 1.122,2.726 -0.3,0.374 -0.364,0.964 -0.12,1.51 0.296,0.663 0.943,1.027 1.508,0.884 0.886,1.291 1.933,2.46 3.094,3.504 0.021,0.299 0.16,0.62 0.429,0.879 0.338,0.325 0.766,0.449 1.115,0.377 3.255,2.384 7.253,3.81 11.587,3.81 0.487,0 0.968,-0.024 1.445,-0.06 0.309,0.225 0.788,0.373 1.334,0.373 0.862,0 1.565,-0.365 1.668,-0.833 1.512,-0.355 2.959,-0.884 4.317,-1.564 z"
   id="path3401"
   inkscape:connector-curvature="0"
   style="fill:#b0b5b5" />
		<ellipse
   cx="74.704002"
   cy="22.076"
   rx="1.5930001"
   ry="1.4680001"
   id="ellipse3403"
   d="m 76.297002,22.076 c 0,0.810754 -0.71321,1.468 -1.593,1.468 -0.879789,0 -1.593,-0.657246 -1.593,-1.468 0,-0.810754 0.713211,-1.468 1.593,-1.468 0.87979,0 1.593,0.657246 1.593,1.468 z"
   sodipodi:cx="74.704002"
   sodipodi:cy="22.076"
   sodipodi:rx="1.5930001"
   sodipodi:ry="1.4680001"
   style="fill:#b0b5b5" />
		<ellipse
   cx="64.668999"
   cy="15.958"
   rx="1.699"
   ry="1.4579999"
   id="ellipse3405"
   d="m 66.367999,15.958 c 0,0.805231 -0.760668,1.458 -1.699,1.458 -0.938332,0 -1.699,-0.652769 -1.699,-1.458 0,-0.805231 0.760668,-1.458 1.699,-1.458 0.938332,0 1.699,0.652769 1.699,1.458 z"
   sodipodi:cx="64.668999"
   sodipodi:cy="15.958"
   sodipodi:rx="1.699"
   sodipodi:ry="1.4579999"
   style="fill:#b0b5b5" />
		<ellipse
   cx="22.034"
   cy="37.775002"
   rx="2.3670001"
   ry="2.3050001"
   id="ellipse3407"
   d="m 24.401,37.775002 c 0,1.273016 -1.059742,2.305 -2.367,2.305 -1.307258,0 -2.367,-1.031984 -2.367,-2.305 0,-1.273017 1.059742,-2.305001 2.367,-2.305001 1.307258,0 2.367,1.031984 2.367,2.305001 z"
   sodipodi:cx="22.034"
   sodipodi:cy="37.775002"
   sodipodi:rx="2.3670001"
   sodipodi:ry="2.3050001"
   style="fill:#b0b5b5" />
		<ellipse
   cx="73.492996"
   cy="70.168999"
   rx="1.636"
   ry="1.576"
   id="ellipse3409"
   d="m 75.128996,70.168999 c 0,0.8704 -0.732462,1.576 -1.636,1.576 -0.903538,0 -1.636,-0.7056 -1.636,-1.576 0,-0.870401 0.732462,-1.576 1.636,-1.576 0.903538,0 1.636,0.705599 1.636,1.576 z"
   sodipodi:cx="73.492996"
   sodipodi:cy="70.168999"
   sodipodi:rx="1.636"
   sodipodi:ry="1.576"
   style="opacity:0.5;fill:#848484" />
		<ellipse
   cx="23.367001"
   cy="66.073997"
   rx="5.1849999"
   ry="5.428"
   id="ellipse3411"
   d="m 28.552001,66.073997 c 0,2.997802 -2.321404,5.428 -5.185,5.428 -2.863597,0 -5.185,-2.430198 -5.185,-5.428 0,-2.997801 2.321403,-5.427999 5.185,-5.427999 2.863596,0 5.185,2.430198 5.185,5.427999 z"
   sodipodi:cx="23.367001"
   sodipodi:cy="66.073997"
   sodipodi:rx="5.1849999"
   sodipodi:ry="5.428"
   style="opacity:0.5;fill:#848484" />
		<circle
   cx="57.099998"
   cy="35.469002"
   r="4.8330002"
   id="circle3413"
   d="m 61.932999,35.469002 c 0,2.669192 -2.163808,4.833 -4.833001,4.833 -2.669192,0 -4.833,-2.163808 -4.833,-4.833 0,-2.669193 2.163808,-4.833 4.833,-4.833 2.669193,0 4.833001,2.163807 4.833001,4.833 z"
   sodipodi:cx="57.099998"
   sodipodi:cy="35.469002"
   sodipodi:rx="4.8330002"
   sodipodi:ry="4.8330002"
   style="opacity:0.2;fill:#848484" />
	</g>
	<g
   id="g3415">
		<path
   d="m 30.932,68.958 c -0.536,0 -0.971,-0.435 -0.971,-0.971 v -0.91 c -0.245,-0.176 -0.405,-0.464 -0.405,-0.789 v -0.971 c 0,-0.325 0.159,-0.612 0.405,-0.789 V 46.147 c 0,-0.325 0.159,-0.612 0.404,-0.788 v -0.182 c 0,-0.325 0.159,-0.612 0.405,-0.789 v -0.182 c 0,-0.536 0.435,-0.971 0.971,-0.971 h 2.427 c 0.536,0 0.971,0.435 0.971,0.971 v 0.182 c 0.245,0.176 0.405,0.464 0.405,0.789 v 0.182 c 0.245,0.176 0.404,0.464 0.404,0.788 v 18.382 c 0.245,0.176 0.405,0.464 0.405,0.789 v 0.971 c 0,0.325 -0.159,0.612 -0.405,0.789 v 0.91 c 0,0.536 -0.435,0.971 -0.971,0.971 h -4.045 z"
   id="path3417"
   inkscape:connector-curvature="0"
   style="fill:#282828" />
		<polygon
   points="34.168,44.205 31.741,44.205 31.741,45.176 31.337,45.176 31.337,46.147 30.932,46.147 30.932,65.318 30.528,65.318 30.528,66.288 30.932,66.288 30.932,67.987 34.977,67.987 34.977,66.288 35.381,66.288 35.381,65.318 34.977,65.318 34.977,46.147 34.572,46.147 34.572,45.176 34.168,45.176 "
   id="polygon3419"
   style="fill:#acb1b2" />
		<path
   d="m 61.023,68.958 c -0.536,0 -0.971,-0.435 -0.971,-0.971 v -0.91 c -0.245,-0.176 -0.405,-0.464 -0.405,-0.789 v -0.971 c 0,-0.325 0.159,-0.612 0.405,-0.789 V 46.147 c 0,-0.325 0.159,-0.612 0.404,-0.788 v -0.182 c 0,-0.325 0.159,-0.612 0.405,-0.789 v -0.182 c 0,-0.536 0.435,-0.971 0.971,-0.971 h 2.427 c 0.536,0 0.971,0.435 0.971,0.971 v 0.182 c 0.245,0.176 0.405,0.464 0.405,0.789 v 0.182 c 0.245,0.176 0.404,0.464 0.404,0.788 v 18.382 c 0.245,0.176 0.405,0.464 0.405,0.789 v 0.971 c 0,0.325 -0.159,0.612 -0.405,0.789 v 0.91 c 0,0.536 -0.435,0.971 -0.971,0.971 h -4.045 z"
   id="path3421"
   inkscape:connector-curvature="0"
   style="fill:#282828" />
		<polygon
   points="64.259,44.205 61.832,44.205 61.832,45.176 61.428,45.176 61.428,46.147 61.023,46.147 61.023,65.318 60.619,65.318 60.619,66.288 61.023,66.288 61.023,67.987 65.068,67.987 65.068,66.288 65.472,66.288 65.472,65.318 65.068,65.318 65.068,46.147 64.663,46.147 64.663,45.176 64.259,45.176 "
   id="polygon3423"
   style="fill:#acb1b2" />
		<linearGradient
   id="SVGID_1_"
   gradientUnits="userSpaceOnUse"
   x1="30.5278"
   y1="56.0961"
   x2="35.381199"
   y2="56.0961">
			<stop
   offset="0"
   style="stop-color:#000000"
   id="stop3426" />
			<stop
   offset="1"
   style="stop-color:#808080;stop-opacity:0"
   id="stop3428" />
		</linearGradient>
		<polygon
   points="34.168,44.205 31.741,44.205 31.741,45.176 31.337,45.176 31.337,46.147 30.932,46.147 30.932,65.318 30.528,65.318 30.528,66.288 30.932,66.288 30.932,67.987 34.977,67.987 34.977,66.288 35.381,66.288 35.381,65.318 34.977,65.318 34.977,46.147 34.572,46.147 34.572,45.176 34.168,45.176 "
   id="polygon3430"
   style="opacity:0.5;fill:url(#SVGID_1_)" />
		<linearGradient
   id="SVGID_2_"
   gradientUnits="userSpaceOnUse"
   x1="60.618801"
   y1="56.0961"
   x2="65.472198"
   y2="56.0961">
			<stop
   offset="0"
   style="stop-color:#000000"
   id="stop3433" />
			<stop
   offset="1"
   style="stop-color:#808080;stop-opacity:0"
   id="stop3435" />
		</linearGradient>
		<polygon
   points="64.259,44.205 61.832,44.205 61.832,45.176 61.428,45.176 61.428,46.147 61.023,46.147 61.023,65.318 60.619,65.318 60.619,66.288 61.023,66.288 61.023,67.987 65.068,67.987 65.068,66.288 65.472,66.288 65.472,65.318 65.068,65.318 65.068,46.147 64.663,46.147 64.663,45.176 64.259,45.176 "
   id="polygon3437"
   style="opacity:0.2;fill:url(#SVGID_2_)" />
		<path
   d="m 58.676,64.65 c -0.181,0 -0.358,-0.033 -0.525,-0.098 l -4.782,-1.843 h -0.834 c -0.201,0 -0.4,-0.042 -0.583,-0.122 l -7.905,0 c -0.182,0.08 -0.382,0.121 -0.583,0.121 H 42.63 l -4.783,1.844 c -0.169,0.065 -0.345,0.097 -0.524,0.097 H 25.856 c -0.803,0 -1.456,-0.653 -1.456,-1.456 V 60.06 c 0,-0.424 0.184,-0.826 0.505,-1.103 l 5.28,-4.542 13.096,-14.814 c 0.276,-0.313 0.674,-0.492 1.091,-0.492 h 7.254 c 0.417,0 0.815,0.179 1.091,0.492 l 13.097,14.815 5.279,4.541 c 0.322,0.277 0.506,0.68 0.506,1.104 v 3.134 c 0,0.803 -0.653,1.456 -1.456,1.456 H 58.676 z"
   id="path3439"
   inkscape:connector-curvature="0"
   style="fill:#282828" />
		<path
   d="m 58.676,63.68 c -0.06,0 -0.119,-0.011 -0.174,-0.032 L 53.635,61.772 C 53.579,61.75 53.52,61.739 53.46,61.739 h -0.925 c -0.082,0 -0.164,-0.021 -0.235,-0.061 -0.072,-0.04 -0.153,-0.061 -0.236,-0.061 l -8.129,0 c -0.082,0 -0.163,0.021 -0.235,0.061 -0.072,0.04 -0.153,0.061 -0.236,0.061 H 42.54 c -0.06,0 -0.119,0.011 -0.175,0.033 l -4.867,1.876 c -0.056,0.021 -0.114,0.032 -0.175,0.032 H 25.856 c -0.268,0 -0.485,-0.218 -0.485,-0.485 V 60.06 c 0,-0.142 0.062,-0.276 0.169,-0.368 l 5.305,-4.563 c 0.017,-0.014 0.032,-0.03 0.047,-0.046 L 44.01,40.244 c 0.092,-0.104 0.225,-0.164 0.364,-0.164 h 7.254 c 0.139,0 0.271,0.06 0.363,0.164 l 13.118,14.839 c 0.014,0.017 0.03,0.032 0.047,0.046 l 5.305,4.563 c 0.107,0.092 0.169,0.227 0.169,0.368 v 3.134 c 0,0.268 -0.218,0.485 -0.485,0.485 H 58.676 z"
   id="path3441"
   inkscape:connector-curvature="0"
   style="fill:#b6bbbc" />
		<path
   d="m 44.497,67.805 c -0.778,0 -1.509,-0.303 -2.059,-0.853 L 39.753,64.267 C 39.203,63.717 38.9,62.986 38.9,62.208 v -7.247 c 0,-0.317 0.051,-0.629 0.152,-0.929 1.013,-3.012 2.303,-10.38 2.286,-11.258 -0.057,-2.964 -0.135,-7.024 1.045,-12.016 0.938,-3.97 2.415,-6.158 3.489,-7.295 0.546,-0.578 1.315,-0.911 2.111,-0.912 0.799,0 1.567,0.329 2.114,0.903 1.087,1.142 2.58,3.336 3.518,7.305 1.179,4.989 1.102,9.042 1.045,12.002 -0.017,0.883 1.273,8.261 2.287,11.273 0.101,0.299 0.152,0.611 0.152,0.928 v 7.247 c 0,0.778 -0.303,1.509 -0.853,2.059 l -2.685,2.685 c -0.55,0.55 -1.281,0.853 -2.059,0.853 h -7.005 z"
   id="path3443"
   inkscape:connector-curvature="0"
   style="fill:#282828" />
		<path
   d="M 70.144,61.253 H 58.676 c -0.06,0 -0.119,-0.011 -0.174,-0.032 L 53.635,59.345 C 53.579,59.323 53.52,59.312 53.46,59.312 h -0.925 c -0.082,0 -0.164,-0.021 -0.235,-0.061 -0.072,-0.04 -0.153,-0.061 -0.236,-0.061 l -8.129,0 c -0.082,0 -0.163,0.021 -0.235,0.061 -0.072,0.04 -0.153,0.061 -0.236,0.061 H 42.54 c -0.06,0 -0.119,0.011 -0.175,0.033 L 38.9,60.68 v -5.699 c 0,-0.319 0.051,-0.632 0.152,-0.934 0.652,-1.949 1.419,-5.71 1.878,-8.379 l 3.079,-3.483 c 0.092,-0.104 0.225,-0.164 0.364,-0.164 h 0.473 V 40.08 h -0.473 c -0.139,0 -0.272,0.06 -0.364,0.164 L 30.891,55.083 c -0.014,0.017 -0.03,0.032 -0.047,0.046 l -5.305,4.563 c -0.107,0.092 -0.169,0.227 -0.169,0.368 v 0.707 1.234 1.192 c 0,0.268 0.218,0.485 0.485,0.485 h 11.468 c 0.06,0 0.119,-0.011 0.175,-0.032 l 4.867,-1.876 c 0.056,-0.022 0.115,-0.033 0.175,-0.033 h 0.925 c 0.082,0 0.164,-0.021 0.236,-0.061 0.072,-0.04 0.153,-0.061 0.235,-0.061 l 8.129,0 c 0.082,0 0.164,0.021 0.236,0.061 0.071,0.04 0.153,0.061 0.235,0.061 h 0.925 c 0.06,0 0.119,0.011 0.175,0.033 l 4.867,1.876 c 0.055,0.021 0.114,0.032 0.174,0.032 h 11.468 c 0.268,0 0.485,-0.218 0.485,-0.485 v -2.427 c -10e-4,0.269 -0.219,0.487 -0.486,0.487 z m -44.162,0 4.862,-4.182 c 0.017,-0.014 0.032,-0.03 0.047,-0.046 l 8.204,-9.28 c -0.443,2.299 -1.004,4.824 -1.499,6.303 -0.101,0.301 -0.152,0.615 -0.152,0.934 v 6.25 c -0.039,0.01 -0.079,0.022 -0.12,0.022 H 25.982 z"
   id="path3445"
   inkscape:connector-curvature="0"
   style="opacity:0.1" />
		<path
   d="M 70.144,62.709 H 58.676 c -0.06,0 -0.119,-0.011 -0.174,-0.032 L 53.635,60.8 C 53.579,60.778 53.52,60.767 53.46,60.767 h -0.925 c -0.082,0 -0.164,-0.021 -0.235,-0.061 -0.072,-0.04 -0.153,-0.061 -0.236,-0.061 l -8.129,0 c -0.082,0 -0.163,0.021 -0.235,0.061 -0.072,0.04 -0.153,0.061 -0.236,0.061 H 42.54 c -0.06,0 -0.119,0.011 -0.175,0.033 l -4.867,1.876 c -0.056,0.021 -0.114,0.032 -0.175,0.032 H 25.856 c -0.268,0 -0.485,-0.218 -0.485,-0.485 v 0.971 c 0,0.268 0.218,0.485 0.485,0.485 h 11.468 c 0.06,0 0.119,-0.011 0.175,-0.032 l 4.867,-1.876 c 0.056,-0.022 0.115,-0.033 0.175,-0.033 h 0.925 c 0.082,0 0.164,-0.021 0.236,-0.061 0.072,-0.04 0.153,-0.061 0.235,-0.061 l 8.129,0 c 0.082,0 0.164,0.021 0.236,0.061 0.071,0.04 0.153,0.061 0.235,0.061 h 0.925 c 0.06,0 0.119,0.011 0.175,0.033 l 4.867,1.876 c 0.055,0.021 0.114,0.032 0.174,0.032 h 11.468 c 0.268,0 0.485,-0.218 0.485,-0.485 v -0.971 c -0.002,0.268 -0.22,0.486 -0.487,0.486 z"
   id="path3447"
   inkscape:connector-curvature="0"
   style="opacity:0.3" />
		<path
   d="m 30.844,56.1 c 0.017,-0.014 0.032,-0.03 0.047,-0.046 L 40.93,44.697 c -0.459,2.669 -1.226,6.431 -1.878,8.379 -0.101,0.301 -0.152,0.615 -0.152,0.934 v 0.971 c 0,-0.319 0.051,-0.632 0.152,-0.934 0.652,-1.949 1.419,-5.71 1.878,-8.379 l 3.079,-3.483 c 0.092,-0.104 0.225,-0.164 0.364,-0.164 h 0.473 V 41.05 40.08 h -0.473 c -0.139,0 -0.272,0.06 -0.364,0.164 L 30.891,55.083 c -0.014,0.017 -0.03,0.032 -0.047,0.046 l -5.305,4.563 c -0.107,0.092 -0.169,0.227 -0.169,0.368 v 0.707 0.264 c 0,-0.142 0.062,-0.276 0.169,-0.368 L 30.844,56.1 z"
   id="path3449"
   inkscape:connector-curvature="0"
   style="opacity:0.3" />
		<path
   d="m 44.497,66.834 c -0.515,0 -1.009,-0.205 -1.373,-0.569 L 40.439,63.58 C 40.075,63.216 39.87,62.722 39.87,62.207 V 54.96 c 0,-0.21 0.034,-0.419 0.101,-0.619 1.041,-3.094 2.357,-10.543 2.337,-11.587 -0.056,-2.919 -0.132,-6.902 1.019,-11.775 0.889,-3.761 2.258,-5.802 3.25,-6.852 0.366,-0.387 0.874,-0.607 1.407,-0.608 10e-4,0 0.003,0 0.004,0 0.531,0 1.039,0.218 1.406,0.602 1.004,1.054 2.387,3.099 3.276,6.858 1.151,4.871 1.075,8.855 1.019,11.763 -0.02,1.05 1.296,8.505 2.337,11.599 0.067,0.2 0.101,0.409 0.101,0.619 v 7.247 c 0,0.515 -0.205,1.009 -0.569,1.373 l -2.685,2.685 c -0.364,0.364 -0.858,0.569 -1.373,0.569 h -7.003 z"
   id="path3451"
   inkscape:connector-curvature="0"
   style="fill:#c0c5c6" />
		<path
   d="m 49.699,42.021 c 0,0.268 -0.217,0.485 -0.485,0.485 h -2.427 c -0.268,0 -0.485,-0.217 -0.485,-0.485 v -2.912 c 0,-0.268 0.217,-0.485 0.485,-0.485 h 2.427 c 0.268,0 0.485,0.217 0.485,0.485 v 2.912 z m -0.85,-2.184 c 0,-0.134 -0.109,-0.243 -0.243,-0.243 h -1.213 c -0.134,0 -0.243,0.109 -0.243,0.243 v 1.456 c 0,0.134 0.109,0.243 0.243,0.243 h 1.213 c 0.134,0 0.243,-0.109 0.243,-0.243 v -1.456 z"
   id="path3453"
   inkscape:connector-curvature="0"
   style="opacity:0.8;fill:#282828" />
		<polygon
   points="50.912,34.256 50.912,33.285 45.088,33.285 45.088,34.256 46.544,34.256 46.544,37.653 49.456,37.653 49.456,34.256 "
   id="polygon3455"
   style="opacity:0.8;fill:#282828" />
		<rect
   x="30.771"
   y="46.875"
   width="4.368"
   height="0.97100002"
   id="rect3457"
   style="fill:#282828" />
		<rect
   x="30.771"
   y="48.816002"
   width="4.368"
   height="0.48500001"
   id="rect3459"
   style="fill:#282828" />
		<rect
   x="60.861"
   y="46.875"
   width="4.368"
   height="0.97100002"
   id="rect3461"
   style="fill:#282828" />
		<rect
   x="60.861"
   y="48.816002"
   width="4.368"
   height="0.48500001"
   id="rect3463"
   style="fill:#282828" />
		<rect
   x="31.052"
   y="69.685997"
   width="3.806"
   height="0.48500001"
   id="rect3465"
   style="fill:#282828" />
		<rect
   x="60.861"
   y="69.685997"
   width="4.368"
   height="0.48500001"
   id="rect3467"
   style="fill:#282828" />
		<rect
   x="30.771"
   y="70.655998"
   width="4.368"
   height="0.48500001"
   id="rect3469"
   style="fill:#282828" />
		<rect
   x="61.485001"
   y="70.655998"
   width="3.1199999"
   height="0.48500001"
   id="rect3471"
   style="fill:#282828" />
		<rect
   x="31.052999"
   y="71.626999"
   width="3.803"
   height="0.48500001"
   id="rect3473"
   style="fill:#282828" />
		<rect
   x="60.861"
   y="71.626999"
   width="4.368"
   height="0.48500001"
   id="rect3475"
   style="fill:#3f3f3f" />
		<rect
   x="30.771"
   y="72.598"
   width="4.368"
   height="0.48500001"
   id="rect3477"
   style="fill:#282828" />
		<rect
   x="61.311001"
   y="72.598"
   width="3.47"
   height="0.48500001"
   id="rect3479"
   style="fill:#282828" />
		<rect
   x="31.368"
   y="73.568001"
   width="3.1730001"
   height="0.48500001"
   id="rect3481"
   style="fill:#282828" />
		<rect
   x="60.861"
   y="73.568001"
   width="4.368"
   height="0.48500001"
   id="rect3483"
   style="fill:#282828" />
		<rect
   x="31.475"
   y="74.539001"
   width="2.9590001"
   height="0.48500001"
   id="rect3485"
   style="fill:#282828" />
		<rect
   x="61.724998"
   y="74.539001"
   width="2.641"
   height="0.48500001"
   id="rect3487"
   style="fill:#282828" />
		<rect
   x="31.989"
   y="75.510002"
   width="1.931"
   height="0.48500001"
   id="rect3489"
   style="fill:#282828" />
		<rect
   x="62.118999"
   y="75.510002"
   width="1.853"
   height="0.48500001"
   id="rect3491"
   style="fill:#282828" />
		<rect
   x="32.388"
   y="76.480003"
   width="1.133"
   height="0.48500001"
   id="rect3493"
   style="fill:#282828" />
		<rect
   x="62.456001"
   y="76.480003"
   width="1.179"
   height="0.48500001"
   id="rect3495"
   style="fill:#282828" />
		<rect
   x="31.052"
   y="70.170998"
   width="3.806"
   height="0.48500001"
   id="rect3497"
   style="opacity:0.5;fill:#3f3f3f" />
		<rect
   x="60.861"
   y="70.170998"
   width="4.368"
   height="0.48500001"
   id="rect3499"
   style="opacity:0.5;fill:#3f3f3f" />
		<rect
   x="30.771"
   y="71.141998"
   width="4.368"
   height="0.48500001"
   id="rect3501"
   style="opacity:0.5;fill:#3f3f3f" />
		<rect
   x="61.485001"
   y="71.141998"
   width="3.1199999"
   height="0.48500001"
   id="rect3503"
   style="opacity:0.5;fill:#3f3f3f" />
		<rect
   x="31.052999"
   y="72.112"
   width="3.803"
   height="0.48500001"
   id="rect3505"
   style="opacity:0.5;fill:#3f3f3f" />
		<rect
   x="60.861"
   y="72.112"
   width="4.368"
   height="0.48500001"
   id="rect3507"
   style="opacity:0.5;fill:#282828" />
		<rect
   x="30.771"
   y="73.083"
   width="4.368"
   height="0.48500001"
   id="rect3509"
   style="opacity:0.5;fill:#3f3f3f" />
		<rect
   x="61.311001"
   y="73.083"
   width="3.47"
   height="0.48500001"
   id="rect3511"
   style="opacity:0.5;fill:#3f3f3f" />
		<rect
   x="31.368"
   y="74.054001"
   width="3.1730001"
   height="0.48500001"
   id="rect3513"
   style="opacity:0.5;fill:#3f3f3f" />
		<rect
   x="60.861"
   y="74.054001"
   width="4.368"
   height="0.48500001"
   id="rect3515"
   style="opacity:0.5;fill:#3f3f3f" />
		<rect
   x="31.475"
   y="75.024002"
   width="2.9590001"
   height="0.48500001"
   id="rect3517"
   style="opacity:0.5;fill:#3f3f3f" />
		<rect
   x="61.724998"
   y="75.024002"
   width="2.641"
   height="0.48500001"
   id="rect3519"
   style="opacity:0.5;fill:#3f3f3f" />
		<rect
   x="31.989"
   y="75.995003"
   width="1.931"
   height="0.48500001"
   id="rect3521"
   style="opacity:0.5;fill:#3f3f3f" />
		<rect
   x="62.118999"
   y="75.995003"
   width="1.853"
   height="0.48500001"
   id="rect3523"
   style="opacity:0.5;fill:#3f3f3f" />
		<rect
   x="32.388"
   y="76.966003"
   width="1.133"
   height="0.48500001"
   id="rect3525"
   style="opacity:0.5;fill:#3f3f3f" />
		<rect
   x="62.456001"
   y="76.966003"
   width="1.179"
   height="0.48500001"
   id="rect3527"
   style="opacity:0.5;fill:#3f3f3f" />
		<path
   d="m 43.632,62.163 c -0.536,0 -0.971,-0.435 -0.971,-0.971 V 49.059 c 0,-0.536 0.435,-0.971 0.971,-0.971 h 0.485 v -1.941 c 0,-0.536 0.435,-0.971 0.971,-0.971 h 0.971 v -0.728 c 0,-0.536 0.435,-0.971 0.971,-0.971 h 1.941 c 0.536,0 0.971,0.435 0.971,0.971 v 0.728 h 0.971 c 0.536,0 0.971,0.435 0.971,0.971 v 1.941 h 0.485 c 0.536,0 0.971,0.435 0.971,0.971 v 12.133 c 0,0.536 -0.435,0.971 -0.971,0.971 h -8.737 z"
   id="path3529"
   inkscape:connector-curvature="0"
   style="fill:#282828" />
		<g
   id="g3531"
   style="opacity:0.1">
			<path
   d="m 49.006,24.128 c 0.06,-0.064 0.13,-0.116 0.198,-0.171 -0.343,-0.277 -0.767,-0.437 -1.213,-0.437 -10e-4,0 -0.003,0 -0.004,0 -0.533,0.001 -1.042,0.221 -1.407,0.608 -0.992,1.05 -2.361,3.091 -3.25,6.852 -1.152,4.873 -1.075,8.856 -1.019,11.775 0.02,1.044 -1.296,8.493 -2.337,11.587 -0.067,0.2 -0.101,0.409 -0.101,0.619 v 7.247 c 0,0.515 0.205,1.009 0.569,1.373 l 2.685,2.685 c 0.364,0.364 0.858,0.569 1.373,0.569 h 2.427 c -0.515,0 -1.009,-0.205 -1.373,-0.569 L 42.869,63.581 C 42.505,63.217 42.3,62.723 42.3,62.208 v -4.382 c 0.116,-0.059 0.238,-0.11 0.364,-0.15 V 53.49 c 0.426,-1.481 0.873,-3.502 1.244,-5.402 h 0.212 v -1.12 c 0.096,-0.52 0.183,-1.017 0.26,-1.479 0.177,-0.192 0.429,-0.314 0.711,-0.314 h -0.659 c 0.195,-1.196 0.313,-2.105 0.307,-2.421 -0.056,-2.919 -0.132,-6.902 1.019,-11.775 0.886,-3.76 2.256,-5.801 3.248,-6.851 z"
   id="path3533"
   inkscape:connector-curvature="0" />
			<path
   d="m 46.059,44.448 c 0,-0.536 0.435,-0.971 0.971,-0.971 h -0.971 c -0.536,0 -0.971,0.435 -0.971,0.971 v 0.728 h 0.971 v -0.728 z"
   id="path3535"
   inkscape:connector-curvature="0" />
		</g>
		<polygon
   points="45.088,46.147 45.088,49.059 43.632,49.059 43.632,61.192 52.368,61.192 52.368,49.059 50.912,49.059 50.912,46.147 48.971,46.147 48.971,44.448 47.029,44.448 47.029,46.147 "
   id="polygon3537"
   style="fill:#b0b0b0" />
		<linearGradient
   id="SVGID_3_"
   gradientUnits="userSpaceOnUse"
   x1="41.694199"
   y1="58.4249"
   x2="53.6483"
   y2="50.054501">
			<stop
   offset="0"
   style="stop-color:#000000"
   id="stop3540" />
			<stop
   offset="0.2929"
   style="stop-color:#030303;stop-opacity:0.8561"
   id="stop3542" />
			<stop
   offset="0.5247"
   style="stop-color:#0D0D0D;stop-opacity:0.7422"
   id="stop3544" />
			<stop
   offset="0.7356"
   style="stop-color:#1E1E1E;stop-opacity:0.6386"
   id="stop3546" />
			<stop
   offset="0.9329"
   style="stop-color:#353535;stop-opacity:0.5416"
   id="stop3548" />
			<stop
   offset="1"
   style="stop-color:#3F3F3F;stop-opacity:0.5087"
   id="stop3550" />
		</linearGradient>
		<polygon
   points="45.088,46.147 45.088,49.059 43.632,49.059 43.632,61.192 52.368,61.192 52.368,49.059 50.912,49.059 50.912,46.147 48.971,46.147 48.971,44.448 47.029,44.448 47.029,46.147 "
   id="polygon3552"
   style="opacity:0.3;fill:url(#SVGID_3_)" />
		<path
   d="m 44.36,65.075 c -0.252,0 -0.494,-0.098 -0.675,-0.273 -1.806,-1.749 -2.722,-3.045 -2.722,-3.852 v -0.971 c 0,-1.338 1.089,-2.427 2.427,-2.427 h 1.699 v -4.429 c 0,-1.338 1.089,-2.427 2.427,-2.427 h 0.971 c 1.338,0 2.427,1.089 2.427,2.427 v 4.429 h 1.699 c 1.338,0 2.427,1.089 2.427,2.427 v 0.971 c 0,0.807 -0.916,2.103 -2.722,3.852 -0.181,0.175 -0.423,0.273 -0.675,0.273 H 44.36 z"
   id="path3554"
   inkscape:connector-curvature="0"
   style="fill:#282828" />
		<path
   d="m 52.611,58.523 h -2.669 v -5.399 c 0,-0.804 -0.652,-1.456 -1.456,-1.456 h -0.971 c -0.804,0 -1.456,0.652 -1.456,1.456 v 5.399 H 43.39 c -0.804,0 -1.456,0.652 -1.456,1.456 v 0.971 c 0,0.804 2.427,3.155 2.427,3.155 h 7.28 c 0,0 2.427,-2.351 2.427,-3.155 v -0.971 c -10e-4,-0.804 -0.653,-1.456 -1.457,-1.456 z"
   id="path3556"
   inkscape:connector-curvature="0"
   style="fill:#b6bbbc" />
		<path
   d="M 51.64,63.134 H 44.392 C 43.709,62.389 42.904,61.413 42.904,60.95 v -0.971 c 0,-0.804 0.652,-1.456 1.456,-1.456 h -0.971 c -0.804,0 -1.456,0.652 -1.456,1.456 v 0.971 c 0,0.804 2.427,3.155 2.427,3.155 h 0.971 6.309 c 0,0 2.427,-2.351 2.427,-3.155 v -0.971 c 0,0.804 -2.427,3.155 -2.427,3.155 z"
   id="path3558"
   inkscape:connector-curvature="0"
   style="opacity:0.2" />
		<path
   d="m 47.029,53.123 c 0,-0.804 0.652,-1.456 1.456,-1.456 h -0.971 c -0.804,0 -1.456,0.652 -1.456,1.456 v 5.399 h 0.971 v -5.399 z"
   id="path3560"
   inkscape:connector-curvature="0"
   style="opacity:0.2" />
		<path
   d="M 41.41,63.58 C 41.046,63.216 40.841,62.722 40.841,62.207 V 54.96 c 0,-0.21 0.034,-0.419 0.101,-0.619 1.041,-3.094 2.357,-10.543 2.337,-11.587 -0.056,-2.919 -0.132,-6.902 1.019,-11.775 0.889,-3.761 2.258,-5.802 3.25,-6.852 0.253,-0.267 0.576,-0.448 0.926,-0.539 -0.158,-0.041 -0.319,-0.069 -0.485,-0.069 -10e-4,0 -0.003,0 -0.004,0 -0.533,0.001 -1.042,0.221 -1.407,0.608 -0.992,1.05 -2.361,3.091 -3.25,6.852 -1.152,4.873 -1.075,8.856 -1.019,11.775 0.02,1.044 -1.296,8.493 -2.337,11.587 -0.067,0.2 -0.101,0.409 -0.101,0.619 v 7.247 c 0,0.515 0.205,1.009 0.569,1.373 l 2.685,2.685 c 0.364,0.364 0.858,0.569 1.373,0.569 h 0.971 c -0.515,0 -1.009,-0.205 -1.373,-0.569 L 41.41,63.58 z"
   id="path3562"
   inkscape:connector-curvature="0"
   style="opacity:0.3" />
	</g>
</g>
</svg>