<?xml version="1.0" encoding="utf-8"?>
<!-- Generator: Adobe Illustrator 17.0.0, SVG Export Plug-In . SVG Version: 6.00 Build 0)  -->
<!DOCTYPE svg PUBLIC "-//W3C//DTD SVG 1.1//EN" "http://www.w3.org/Graphics/SVG/1.1/DTD/svg11.dtd">
<svg version="1.1" id="图层_1" xmlns="http://www.w3.org/2000/svg" xmlns:xlink="http://www.w3.org/1999/xlink" x="0px" y="0px"
	 width="96px" height="96px" viewBox="0 0 96 96" enable-background="new 0 0 96 96" xml:space="preserve">
<g id="DO_NOT_EDIT_-_BOUNDING_BOX">
</g>
<g id="DO_NOT_EDIT_-_SHADOW">
</g>
<g id="GRAY_BACKGROUNDS">
</g>
<g>
	<rect id="BOUNDING_BOX" fill="none" width="96" height="96"/>
	<path id="SHADOW" opacity="0.4" enable-background="new    " d="M88.023,49c0,29.633-10.364,40-40,40c-29.635,0-40-10.367-40-40
		c0-29.634,10.366-40,40-40C77.659,9,88.023,19.365,88.023,49z"/>
	<linearGradient id="GRAY_1_1_" gradientUnits="userSpaceOnUse" x1="48" y1="87.989" x2="48" y2="8.01">
		<stop  offset="0" style="stop-color:#AFB4B5"/>
		<stop  offset="0.5" style="stop-color:#C3C8C9"/>
		<stop  offset="1" style="stop-color:#D7DCDD"/>
	</linearGradient>
	<path id="GRAY_1" fill="url(#GRAY_1_1_)" d="M8,47.989c0,29.633,10.365,40,40,40c29.637,0,40-10.367,40-40
		c0-28.985-9.926-39.53-38.091-39.979h-3.817C17.928,8.459,8,19.004,8,47.989z"/>
	
		<linearGradient id="HIGHLIGHT_GRA1_1_" gradientUnits="userSpaceOnUse" x1="-216.6798" y1="1392.9199" x2="-216.6798" y2="1472.9199" gradientTransform="matrix(1 0 0 1 264.6798 -1384.9199)">
		<stop  offset="0.0364" style="stop-color:#FCFCFC;stop-opacity:0.8"/>
		<stop  offset="1" style="stop-color:#908F8F"/>
	</linearGradient>
	<path id="HIGHLIGHT_GRA1" opacity="0.8" fill="url(#HIGHLIGHT_GRA1_1_)" enable-background="new    " d="M48,8
		C18.365,8,8,18.365,8,48c0,29.633,10.365,40,40,40c29.637,0,40-10.367,40-40C88,18.365,77.637,8,48,8z M48,87.023
		C18.842,87.023,9,77.176,9,48S18.842,8.977,48,8.977S87,18.824,87,48S77.158,87.023,48,87.023z"/>
	<g>
		<path opacity="0.5" fill="#B0B5B5" d="M58.816,9.562c-0.144,0.908-0.24,1.831-0.24,2.779c0,9.761,7.913,17.674,17.674,17.674
			c2.961,0,5.746-0.737,8.197-2.024C80.823,16.75,72.909,11.244,58.816,9.562z"/>
		<path fill="#B0B5B5" d="M85.014,29.929c-0.176-0.664-0.364-1.311-0.566-1.938c-2.002,1.051-4.228,1.727-6.589,1.942
			c0.26-0.12,0.437-0.295,0.489-0.516c0.14-0.599-0.686-1.304-1.844-1.574c-0.543-0.127-1.059-0.131-1.472-0.043
			c-0.067-0.443-0.542-0.878-1.201-1.044c-0.334-0.084-0.657-0.082-0.932-0.017c-0.273-0.263-0.783-0.442-1.374-0.442
			c-0.876,0-1.587,0.39-1.587,0.87s0.71,0.87,1.587,0.87c0.27,0,0.52-0.04,0.742-0.105c0.193,0.319,0.589,0.597,1.086,0.723
			c0.282,0.071,0.558,0.081,0.803,0.044c0.103,0.522,0.827,1.064,1.799,1.301c-9.623-0.16-17.377-7.998-17.377-17.659
			c0-0.948,0.096-1.871,0.24-2.779c-0.649-0.078-1.312-0.147-1.988-0.208c-0.15,0.977-0.252,1.969-0.252,2.987
			c0,1.163,0.121,2.296,0.315,3.404c-0.193,0.273-0.315,0.659-0.315,1.088c0,0.796,0.415,1.441,0.937,1.49
			c0.302,0.944,0.687,1.85,1.122,2.726c-0.3,0.374-0.364,0.964-0.12,1.51c0.296,0.663,0.943,1.027,1.508,0.884
			c0.886,1.291,1.933,2.46,3.094,3.504c0.021,0.299,0.16,0.62,0.429,0.879c0.338,0.325,0.766,0.449,1.115,0.377
			c3.255,2.384,7.253,3.81,11.587,3.81c0.487,0,0.968-0.024,1.445-0.06c0.309,0.225,0.788,0.373,1.334,0.373
			c0.862,0,1.565-0.365,1.668-0.833C82.209,31.138,83.656,30.609,85.014,29.929z"/>
		<ellipse fill="#B0B5B5" cx="74.704" cy="22.076" rx="1.593" ry="1.468"/>
		<ellipse fill="#B0B5B5" cx="64.669" cy="15.958" rx="1.699" ry="1.458"/>
		<ellipse fill="#B0B5B5" cx="22.034" cy="37.775" rx="2.367" ry="2.305"/>
		<ellipse opacity="0.5" fill="#848484" cx="73.493" cy="70.169" rx="1.636" ry="1.576"/>
		<ellipse opacity="0.5" fill="#848484" cx="23.367" cy="66.074" rx="5.185" ry="5.428"/>
		<circle opacity="0.2" fill="#848484" cx="57.1" cy="35.469" r="4.833"/>
	</g>
	<g>
		<path fill="#282828" d="M30.932,68.958c-0.536,0-0.971-0.435-0.971-0.971v-0.91c-0.245-0.176-0.405-0.464-0.405-0.789v-0.971
			c0-0.325,0.159-0.612,0.405-0.789V46.147c0-0.325,0.159-0.612,0.404-0.788v-0.182c0-0.325,0.159-0.612,0.405-0.789v-0.182
			c0-0.536,0.435-0.971,0.971-0.971h2.427c0.536,0,0.971,0.435,0.971,0.971v0.182c0.245,0.176,0.405,0.464,0.405,0.789v0.182
			c0.245,0.176,0.404,0.464,0.404,0.788v18.382c0.245,0.176,0.405,0.464,0.405,0.789v0.971c0,0.325-0.159,0.612-0.405,0.789v0.91
			c0,0.536-0.435,0.971-0.971,0.971H30.932z"/>
		<polygon fill="#ACB1B2" points="35.381,65.318 34.977,65.318 34.977,46.147 34.572,46.147 34.572,45.176 34.168,45.176 
			34.168,44.205 31.741,44.205 31.741,45.176 31.337,45.176 31.337,46.147 30.932,46.147 30.932,65.318 30.528,65.318 
			30.528,66.288 30.932,66.288 30.932,67.987 34.977,67.987 34.977,66.288 35.381,66.288 		"/>
		<path fill="#282828" d="M61.023,68.958c-0.536,0-0.971-0.435-0.971-0.971v-0.91c-0.245-0.176-0.405-0.464-0.405-0.789v-0.971
			c0-0.325,0.159-0.612,0.405-0.789V46.147c0-0.325,0.159-0.612,0.404-0.788v-0.182c0-0.325,0.159-0.612,0.405-0.789v-0.182
			c0-0.536,0.435-0.971,0.971-0.971h2.427c0.536,0,0.971,0.435,0.971,0.971v0.182c0.245,0.176,0.405,0.464,0.405,0.789v0.182
			c0.245,0.176,0.404,0.464,0.404,0.788v18.382c0.245,0.176,0.405,0.464,0.405,0.789v0.971c0,0.325-0.159,0.612-0.405,0.789v0.91
			c0,0.536-0.435,0.971-0.971,0.971H61.023z"/>
		<polygon fill="#ACB1B2" points="65.472,65.318 65.068,65.318 65.068,46.147 64.663,46.147 64.663,45.176 64.259,45.176 
			64.259,44.205 61.832,44.205 61.832,45.176 61.428,45.176 61.428,46.147 61.023,46.147 61.023,65.318 60.619,65.318 
			60.619,66.288 61.023,66.288 61.023,67.987 65.068,67.987 65.068,66.288 65.472,66.288 		"/>
		<linearGradient id="SVGID_1_" gradientUnits="userSpaceOnUse" x1="30.5278" y1="56.0961" x2="35.3812" y2="56.0961">
			<stop  offset="0" style="stop-color:#000000"/>
			<stop  offset="1" style="stop-color:#808080;stop-opacity:0"/>
		</linearGradient>
		<polygon opacity="0.5" fill="url(#SVGID_1_)" points="35.381,65.318 34.977,65.318 34.977,46.147 34.572,46.147 34.572,45.176 
			34.168,45.176 34.168,44.205 31.741,44.205 31.741,45.176 31.337,45.176 31.337,46.147 30.932,46.147 30.932,65.318 
			30.528,65.318 30.528,66.288 30.932,66.288 30.932,67.987 34.977,67.987 34.977,66.288 35.381,66.288 		"/>
		<linearGradient id="SVGID_2_" gradientUnits="userSpaceOnUse" x1="60.6188" y1="56.0961" x2="65.4722" y2="56.0961">
			<stop  offset="0" style="stop-color:#000000"/>
			<stop  offset="1" style="stop-color:#808080;stop-opacity:0"/>
		</linearGradient>
		<polygon opacity="0.2" fill="url(#SVGID_2_)" points="65.472,65.318 65.068,65.318 65.068,46.147 64.663,46.147 64.663,45.176 
			64.259,45.176 64.259,44.205 61.832,44.205 61.832,45.176 61.428,45.176 61.428,46.147 61.023,46.147 61.023,65.318 
			60.619,65.318 60.619,66.288 61.023,66.288 61.023,67.987 65.068,67.987 65.068,66.288 65.472,66.288 		"/>
		<path fill="#282828" d="M58.676,64.65c-0.181,0-0.358-0.033-0.525-0.098l-4.782-1.843h-0.834c-0.201,0-0.4-0.042-0.583-0.122
			l-7.905,0c-0.182,0.08-0.382,0.121-0.583,0.121h-0.834l-4.783,1.844c-0.169,0.065-0.345,0.097-0.524,0.097H25.856
			c-0.803,0-1.456-0.653-1.456-1.456V60.06c0-0.424,0.184-0.826,0.505-1.103l5.28-4.542l13.096-14.814
			c0.276-0.313,0.674-0.492,1.091-0.492h7.254c0.417,0,0.815,0.179,1.091,0.492l13.097,14.815l5.279,4.541
			c0.322,0.277,0.506,0.68,0.506,1.104v3.134c0,0.803-0.653,1.456-1.456,1.456H58.676z"/>
		<path fill="#B6BBBC" d="M58.676,63.68c-0.06,0-0.119-0.011-0.174-0.032l-4.867-1.876c-0.056-0.022-0.115-0.033-0.175-0.033h-0.925
			c-0.082,0-0.164-0.021-0.235-0.061c-0.072-0.04-0.153-0.061-0.236-0.061l-8.129,0c-0.082,0-0.163,0.021-0.235,0.061
			c-0.072,0.04-0.153,0.061-0.236,0.061H42.54c-0.06,0-0.119,0.011-0.175,0.033l-4.867,1.876c-0.056,0.021-0.114,0.032-0.175,0.032
			H25.856c-0.268,0-0.485-0.218-0.485-0.485V60.06c0-0.142,0.062-0.276,0.169-0.368l5.305-4.563c0.017-0.014,0.032-0.03,0.047-0.046
			l13.118-14.839c0.092-0.104,0.225-0.164,0.364-0.164h7.254c0.139,0,0.271,0.06,0.363,0.164l13.118,14.839
			c0.014,0.017,0.03,0.032,0.047,0.046l5.305,4.563c0.107,0.092,0.169,0.227,0.169,0.368v3.134c0,0.268-0.218,0.485-0.485,0.485
			H58.676z"/>
		<path fill="#282828" d="M44.497,67.805c-0.778,0-1.509-0.303-2.059-0.853l-2.685-2.685c-0.55-0.55-0.853-1.281-0.853-2.059v-7.247
			c0-0.317,0.051-0.629,0.152-0.929c1.013-3.012,2.303-10.38,2.286-11.258c-0.057-2.964-0.135-7.024,1.045-12.016
			c0.938-3.97,2.415-6.158,3.489-7.295c0.546-0.578,1.315-0.911,2.111-0.912c0.799,0,1.567,0.329,2.114,0.903
			c1.087,1.142,2.58,3.336,3.518,7.305c1.179,4.989,1.102,9.042,1.045,12.002c-0.017,0.883,1.273,8.261,2.287,11.273
			c0.101,0.299,0.152,0.611,0.152,0.928v7.247c0,0.778-0.303,1.509-0.853,2.059l-2.685,2.685c-0.55,0.55-1.281,0.853-2.059,0.853
			H44.497z"/>
		<path opacity="0.1" d="M70.144,61.253H58.676c-0.06,0-0.119-0.011-0.174-0.032l-4.867-1.876c-0.056-0.022-0.115-0.033-0.175-0.033
			h-0.925c-0.082,0-0.164-0.021-0.235-0.061c-0.072-0.04-0.153-0.061-0.236-0.061l-8.129,0c-0.082,0-0.163,0.021-0.235,0.061
			c-0.072,0.04-0.153,0.061-0.236,0.061H42.54c-0.06,0-0.119,0.011-0.175,0.033L38.9,60.68v-5.699c0-0.319,0.051-0.632,0.152-0.934
			c0.652-1.949,1.419-5.71,1.878-8.379l3.079-3.483c0.092-0.104,0.225-0.164,0.364-0.164h0.473V40.08h-0.473
			c-0.139,0-0.272,0.06-0.364,0.164L30.891,55.083c-0.014,0.017-0.03,0.032-0.047,0.046l-5.305,4.563
			c-0.107,0.092-0.169,0.227-0.169,0.368v0.707v1.234v1.192c0,0.268,0.218,0.485,0.485,0.485h11.468c0.06,0,0.119-0.011,0.175-0.032
			l4.867-1.876c0.056-0.022,0.115-0.033,0.175-0.033h0.925c0.082,0,0.164-0.021,0.236-0.061c0.072-0.04,0.153-0.061,0.235-0.061
			l8.129,0c0.082,0,0.164,0.021,0.236,0.061c0.071,0.04,0.153,0.061,0.235,0.061h0.925c0.06,0,0.119,0.011,0.175,0.033l4.867,1.876
			c0.055,0.021,0.114,0.032,0.174,0.032h11.468c0.268,0,0.485-0.218,0.485-0.485v-2.427C70.629,61.035,70.411,61.253,70.144,61.253z
			 M25.982,61.253l4.862-4.182c0.017-0.014,0.032-0.03,0.047-0.046l8.204-9.28c-0.443,2.299-1.004,4.824-1.499,6.303
			c-0.101,0.301-0.152,0.615-0.152,0.934v6.25c-0.039,0.01-0.079,0.022-0.12,0.022H25.982z"/>
		<path opacity="0.3" d="M70.144,62.709H58.676c-0.06,0-0.119-0.011-0.174-0.032L53.635,60.8c-0.056-0.022-0.115-0.033-0.175-0.033
			h-0.925c-0.082,0-0.164-0.021-0.235-0.061c-0.072-0.04-0.153-0.061-0.236-0.061l-8.129,0c-0.082,0-0.163,0.021-0.235,0.061
			c-0.072,0.04-0.153,0.061-0.236,0.061H42.54c-0.06,0-0.119,0.011-0.175,0.033l-4.867,1.876c-0.056,0.021-0.114,0.032-0.175,0.032
			H25.856c-0.268,0-0.485-0.218-0.485-0.485v0.971c0,0.268,0.218,0.485,0.485,0.485h11.468c0.06,0,0.119-0.011,0.175-0.032
			l4.867-1.876c0.056-0.022,0.115-0.033,0.175-0.033h0.925c0.082,0,0.164-0.021,0.236-0.061c0.072-0.04,0.153-0.061,0.235-0.061
			l8.129,0c0.082,0,0.164,0.021,0.236,0.061c0.071,0.04,0.153,0.061,0.235,0.061h0.925c0.06,0,0.119,0.011,0.175,0.033l4.867,1.876
			c0.055,0.021,0.114,0.032,0.174,0.032h11.468c0.268,0,0.485-0.218,0.485-0.485v-0.971C70.629,62.491,70.411,62.709,70.144,62.709z
			"/>
		<path opacity="0.3" d="M30.844,56.1c0.017-0.014,0.032-0.03,0.047-0.046L40.93,44.697c-0.459,2.669-1.226,6.431-1.878,8.379
			c-0.101,0.301-0.152,0.615-0.152,0.934v0.971c0-0.319,0.051-0.632,0.152-0.934c0.652-1.949,1.419-5.71,1.878-8.379l3.079-3.483
			c0.092-0.104,0.225-0.164,0.364-0.164h0.473v-0.971V40.08h-0.473c-0.139,0-0.272,0.06-0.364,0.164L30.891,55.083
			c-0.014,0.017-0.03,0.032-0.047,0.046l-5.305,4.563c-0.107,0.092-0.169,0.227-0.169,0.368v0.707v0.264
			c0-0.142,0.062-0.276,0.169-0.368L30.844,56.1z"/>
		<path fill="#C0C5C6" d="M44.497,66.834c-0.515,0-1.009-0.205-1.373-0.569l-2.685-2.685c-0.364-0.364-0.569-0.858-0.569-1.373
			v-7.247c0-0.21,0.034-0.419,0.101-0.619c1.041-3.094,2.357-10.543,2.337-11.587c-0.056-2.919-0.132-6.902,1.019-11.775
			c0.889-3.761,2.258-5.802,3.25-6.852c0.366-0.387,0.874-0.607,1.407-0.608c0.001,0,0.003,0,0.004,0
			c0.531,0,1.039,0.218,1.406,0.602c1.004,1.054,2.387,3.099,3.276,6.858c1.151,4.871,1.075,8.855,1.019,11.763
			c-0.02,1.05,1.296,8.505,2.337,11.599c0.067,0.2,0.101,0.409,0.101,0.619v7.247c0,0.515-0.205,1.009-0.569,1.373l-2.685,2.685
			c-0.364,0.364-0.858,0.569-1.373,0.569H44.497z"/>
		<path opacity="0.8" fill="#282828" d="M49.699,42.021c0,0.268-0.217,0.485-0.485,0.485h-2.427c-0.268,0-0.485-0.217-0.485-0.485
			v-2.912c0-0.268,0.217-0.485,0.485-0.485h2.427c0.268,0,0.485,0.217,0.485,0.485V42.021z M48.849,39.837
			c0-0.134-0.109-0.243-0.243-0.243h-1.213c-0.134,0-0.243,0.109-0.243,0.243v1.456c0,0.134,0.109,0.243,0.243,0.243h1.213
			c0.134,0,0.243-0.109,0.243-0.243V39.837z"/>
		<polygon opacity="0.8" fill="#282828" points="45.088,33.285 45.088,34.256 46.544,34.256 46.544,37.653 49.456,37.653 
			49.456,34.256 50.912,34.256 50.912,33.285 		"/>
		<rect x="30.771" y="46.875" fill="#282828" width="4.368" height="0.971"/>
		<rect x="30.771" y="48.816" fill="#282828" width="4.368" height="0.485"/>
		<rect x="60.861" y="46.875" fill="#282828" width="4.368" height="0.971"/>
		<rect x="60.861" y="48.816" fill="#282828" width="4.368" height="0.485"/>
		<rect x="31.052" y="69.686" fill="#282828" width="3.806" height="0.485"/>
		<rect x="60.861" y="69.686" fill="#282828" width="4.368" height="0.485"/>
		<rect x="30.771" y="70.656" fill="#282828" width="4.368" height="0.485"/>
		<rect x="61.485" y="70.656" fill="#282828" width="3.12" height="0.485"/>
		<rect x="31.053" y="71.627" fill="#282828" width="3.803" height="0.485"/>
		<rect x="60.861" y="71.627" fill="#3F3F3F" width="4.368" height="0.485"/>
		<rect x="30.771" y="72.598" fill="#282828" width="4.368" height="0.485"/>
		<rect x="61.311" y="72.598" fill="#282828" width="3.47" height="0.485"/>
		<rect x="31.368" y="73.568" fill="#282828" width="3.173" height="0.485"/>
		<rect x="60.861" y="73.568" fill="#282828" width="4.368" height="0.485"/>
		<rect x="31.475" y="74.539" fill="#282828" width="2.959" height="0.485"/>
		<rect x="61.725" y="74.539" fill="#282828" width="2.641" height="0.485"/>
		<rect x="31.989" y="75.51" fill="#282828" width="1.931" height="0.485"/>
		<rect x="62.119" y="75.51" fill="#282828" width="1.853" height="0.485"/>
		<rect x="32.388" y="76.48" fill="#282828" width="1.133" height="0.485"/>
		<rect x="62.456" y="76.48" fill="#282828" width="1.179" height="0.485"/>
		<rect x="31.052" y="70.171" opacity="0.5" fill="#3F3F3F" width="3.806" height="0.485"/>
		<rect x="60.861" y="70.171" opacity="0.5" fill="#3F3F3F" width="4.368" height="0.485"/>
		<rect x="30.771" y="71.142" opacity="0.5" fill="#3F3F3F" width="4.368" height="0.485"/>
		<rect x="61.485" y="71.142" opacity="0.5" fill="#3F3F3F" width="3.12" height="0.485"/>
		<rect x="31.053" y="72.112" opacity="0.5" fill="#3F3F3F" width="3.803" height="0.485"/>
		<rect x="60.861" y="72.112" opacity="0.5" fill="#282828" width="4.368" height="0.485"/>
		<rect x="30.771" y="73.083" opacity="0.5" fill="#3F3F3F" width="4.368" height="0.485"/>
		<rect x="61.311" y="73.083" opacity="0.5" fill="#3F3F3F" width="3.47" height="0.485"/>
		<rect x="31.368" y="74.054" opacity="0.5" fill="#3F3F3F" width="3.173" height="0.485"/>
		<rect x="60.861" y="74.054" opacity="0.5" fill="#3F3F3F" width="4.368" height="0.485"/>
		<rect x="31.475" y="75.024" opacity="0.5" fill="#3F3F3F" width="2.959" height="0.485"/>
		<rect x="61.725" y="75.024" opacity="0.5" fill="#3F3F3F" width="2.641" height="0.485"/>
		<rect x="31.989" y="75.995" opacity="0.5" fill="#3F3F3F" width="1.931" height="0.485"/>
		<rect x="62.119" y="75.995" opacity="0.5" fill="#3F3F3F" width="1.853" height="0.485"/>
		<rect x="32.388" y="76.966" opacity="0.5" fill="#3F3F3F" width="1.133" height="0.485"/>
		<rect x="62.456" y="76.966" opacity="0.5" fill="#3F3F3F" width="1.179" height="0.485"/>
		<path fill="#282828" d="M43.632,62.163c-0.536,0-0.971-0.435-0.971-0.971V49.059c0-0.536,0.435-0.971,0.971-0.971h0.485v-1.941
			c0-0.536,0.435-0.971,0.971-0.971h0.971v-0.728c0-0.536,0.435-0.971,0.971-0.971h1.941c0.536,0,0.971,0.435,0.971,0.971v0.728
			h0.971c0.536,0,0.971,0.435,0.971,0.971v1.941h0.485c0.536,0,0.971,0.435,0.971,0.971v12.133c0,0.536-0.435,0.971-0.971,0.971
			H43.632z"/>
		<g opacity="0.1">
			<path d="M49.006,24.128c0.06-0.064,0.13-0.116,0.198-0.171c-0.343-0.277-0.767-0.437-1.213-0.437c-0.001,0-0.003,0-0.004,0
				c-0.533,0.001-1.042,0.221-1.407,0.608c-0.992,1.05-2.361,3.091-3.25,6.852c-1.152,4.873-1.075,8.856-1.019,11.775
				c0.02,1.044-1.296,8.493-2.337,11.587c-0.067,0.2-0.101,0.409-0.101,0.619v7.247c0,0.515,0.205,1.009,0.569,1.373l2.685,2.685
				c0.364,0.364,0.858,0.569,1.373,0.569h2.427c-0.515,0-1.009-0.205-1.373-0.569l-2.685-2.685
				c-0.364-0.364-0.569-0.858-0.569-1.373v-4.382c0.116-0.059,0.238-0.11,0.364-0.15V53.49c0.426-1.481,0.873-3.502,1.244-5.402
				h0.212v-1.12c0.096-0.52,0.183-1.017,0.26-1.479c0.177-0.192,0.429-0.314,0.711-0.314h-0.659
				c0.195-1.196,0.313-2.105,0.307-2.421c-0.056-2.919-0.132-6.902,1.019-11.775C46.644,27.219,48.014,25.178,49.006,24.128z"/>
			<path d="M46.059,44.448c0-0.536,0.435-0.971,0.971-0.971h-0.971c-0.536,0-0.971,0.435-0.971,0.971v0.728h0.971V44.448z"/>
		</g>
		<polygon fill="#B0B0B0" points="50.912,49.059 50.912,46.147 48.971,46.147 48.971,44.448 47.029,44.448 47.029,46.147 
			45.088,46.147 45.088,49.059 43.632,49.059 43.632,61.192 52.368,61.192 52.368,49.059 		"/>
		<linearGradient id="SVGID_3_" gradientUnits="userSpaceOnUse" x1="41.6942" y1="58.4249" x2="53.6483" y2="50.0545">
			<stop  offset="0" style="stop-color:#000000"/>
			<stop  offset="0.2929" style="stop-color:#030303;stop-opacity:0.8561"/>
			<stop  offset="0.5247" style="stop-color:#0D0D0D;stop-opacity:0.7422"/>
			<stop  offset="0.7356" style="stop-color:#1E1E1E;stop-opacity:0.6386"/>
			<stop  offset="0.9329" style="stop-color:#353535;stop-opacity:0.5416"/>
			<stop  offset="1" style="stop-color:#3F3F3F;stop-opacity:0.5087"/>
		</linearGradient>
		<polygon opacity="0.3" fill="url(#SVGID_3_)" points="50.912,49.059 50.912,46.147 48.971,46.147 48.971,44.448 47.029,44.448 
			47.029,46.147 45.088,46.147 45.088,49.059 43.632,49.059 43.632,61.192 52.368,61.192 52.368,49.059 		"/>
		<path fill="#282828" d="M44.36,65.075c-0.252,0-0.494-0.098-0.675-0.273c-1.806-1.749-2.722-3.045-2.722-3.852v-0.971
			c0-1.338,1.089-2.427,2.427-2.427h1.699v-4.429c0-1.338,1.089-2.427,2.427-2.427h0.971c1.338,0,2.427,1.089,2.427,2.427v4.429
			h1.699c1.338,0,2.427,1.089,2.427,2.427v0.971c0,0.807-0.916,2.103-2.722,3.852c-0.181,0.175-0.423,0.273-0.675,0.273H44.36z"/>
		<path fill="#B6BBBC" d="M52.611,58.523h-2.669v-5.399c0-0.804-0.652-1.456-1.456-1.456h-0.971c-0.804,0-1.456,0.652-1.456,1.456
			v5.399h-2.669c-0.804,0-1.456,0.652-1.456,1.456v0.971c0,0.804,2.427,3.155,2.427,3.155h7.28c0,0,2.427-2.351,2.427-3.155v-0.971
			C54.067,59.175,53.415,58.523,52.611,58.523z"/>
		<path opacity="0.2" d="M51.64,63.134h-7.248c-0.683-0.745-1.488-1.721-1.488-2.184v-0.971c0-0.804,0.652-1.456,1.456-1.456h-0.971
			c-0.804,0-1.456,0.652-1.456,1.456v0.971c0,0.804,2.427,3.155,2.427,3.155h0.971h6.309c0,0,2.427-2.351,2.427-3.155v-0.971
			C54.067,60.783,51.64,63.134,51.64,63.134z"/>
		<path opacity="0.2" d="M47.029,53.123c0-0.804,0.652-1.456,1.456-1.456h-0.971c-0.804,0-1.456,0.652-1.456,1.456v5.399h0.971
			V53.123z"/>
		<path opacity="0.3" d="M41.41,63.58c-0.364-0.364-0.569-0.858-0.569-1.373v-7.247c0-0.21,0.034-0.419,0.101-0.619
			c1.041-3.094,2.357-10.543,2.337-11.587c-0.056-2.919-0.132-6.902,1.019-11.775c0.889-3.761,2.258-5.802,3.25-6.852
			c0.253-0.267,0.576-0.448,0.926-0.539c-0.158-0.041-0.319-0.069-0.485-0.069c-0.001,0-0.003,0-0.004,0
			c-0.533,0.001-1.042,0.221-1.407,0.608c-0.992,1.05-2.361,3.091-3.25,6.852c-1.152,4.873-1.075,8.856-1.019,11.775
			c0.02,1.044-1.296,8.493-2.337,11.587c-0.067,0.2-0.101,0.409-0.101,0.619v7.247c0,0.515,0.205,1.009,0.569,1.373l2.685,2.685
			c0.364,0.364,0.858,0.569,1.373,0.569h0.971c-0.515,0-1.009-0.205-1.373-0.569L41.41,63.58z"/>
	</g>
</g>
</svg>
